<svg width="23" height="19" viewBox="0 0 23 19" fill="none" xmlns="http://www.w3.org/2000/svg">
<path d="M20.8662 0.16643C17.8583 1.41203 4.96139 6.75419 1.39787 8.21027C-0.992046 9.14291 0.406914 10.0172 0.406914 10.0172C0.406914 10.0172 2.44691 10.7166 4.19555 11.2412C5.94419 11.7659 6.87683 11.1829 6.87683 11.1829L15.0954 5.64539C18.0097 3.66371 17.3104 5.29571 16.611 5.99507C15.0954 7.51067 12.5891 9.90035 10.4908 11.8239C9.55811 12.6399 10.0244 13.3396 10.4324 13.6892C11.948 14.9715 16.0864 17.5945 16.3196 17.7695C17.5511 18.6411 19.9732 19.8961 20.3416 17.2448L21.7988 8.09363C22.2652 5.00435 22.7315 2.14811 22.7898 1.33211C22.9645 -0.64957 20.8662 0.16643 20.8662 0.16643Z" fill="#FBFBFB"/>
</svg>
