<svg width="99" height="30" viewBox="0 0 99 30" fill="none" xmlns="http://www.w3.org/2000/svg">
<path d="M0 23.3635V0.0908203H4.92045V9.69309H14.9091V0.0908203H19.8182V23.3635H14.9091V13.7499H4.92045V23.3635H0Z" fill="#2AC6FF"/>
<path d="M30.1386 23.7045C28.3432 23.7045 26.7977 23.3408 25.5023 22.6135C24.2144 21.8787 23.222 20.8408 22.525 19.4999C21.828 18.1514 21.4795 16.5567 21.4795 14.7158C21.4795 12.9204 21.828 11.3446 22.525 9.98855C23.222 8.63249 24.203 7.57567 25.4682 6.81809C26.7409 6.06052 28.2333 5.68173 29.9455 5.68173C31.097 5.68173 32.1689 5.86734 33.1614 6.23855C34.1614 6.60218 35.0326 7.15143 35.775 7.88628C36.525 8.62112 37.1083 9.54537 37.525 10.659C37.9417 11.7651 38.15 13.0605 38.15 14.5454V15.8749H23.4114V12.8749H33.5932C33.5932 12.1779 33.4417 11.5605 33.1386 11.0226C32.8356 10.4848 32.4152 10.0643 31.8773 9.76128C31.347 9.45067 30.7295 9.29537 30.025 9.29537C29.2902 9.29537 28.6386 9.46582 28.0705 9.80673C27.5098 10.1401 27.0705 10.5908 26.7523 11.159C26.4341 11.7196 26.2712 12.3446 26.2636 13.034V15.8863C26.2636 16.7499 26.4227 17.4961 26.7409 18.1249C27.0667 18.7537 27.525 19.2385 28.1159 19.5795C28.7068 19.9204 29.4076 20.0908 30.2182 20.0908C30.7561 20.0908 31.2485 20.0151 31.6955 19.8635C32.1424 19.712 32.525 19.4848 32.8432 19.1817C33.1614 18.8787 33.4038 18.5075 33.5705 18.0681L38.0477 18.3635C37.8205 19.4393 37.3545 20.3787 36.65 21.1817C35.953 21.9772 35.0515 22.5984 33.9455 23.0454C32.847 23.4848 31.578 23.7045 30.1386 23.7045Z" fill="#2AC6FF"/>
<path d="M44.6864 23.6931C43.5727 23.6931 42.5803 23.4999 41.7091 23.1135C40.8379 22.7196 40.1485 22.1401 39.6409 21.3749C39.1409 20.6022 38.8909 19.6401 38.8909 18.4885C38.8909 17.5189 39.0689 16.7045 39.425 16.0454C39.7811 15.3863 40.2659 14.856 40.8795 14.4545C41.4932 14.0529 42.1902 13.7499 42.9705 13.5454C43.7583 13.3408 44.5841 13.1969 45.4477 13.1135C46.4629 13.0075 47.2811 12.909 47.9023 12.8181C48.5235 12.7196 48.9742 12.5757 49.2545 12.3863C49.5348 12.1969 49.675 11.9166 49.675 11.5454V11.4772C49.675 10.7575 49.4477 10.2007 48.9932 9.80673C48.5462 9.41279 47.9098 9.21582 47.0841 9.21582C46.2129 9.21582 45.5197 9.409 45.0045 9.79537C44.4894 10.1742 44.1485 10.6514 43.9818 11.2272L39.5045 10.8635C39.7318 9.80294 40.1788 8.88627 40.8455 8.11355C41.5121 7.33324 42.372 6.73476 43.425 6.31809C44.4856 5.89385 45.7129 5.68173 47.1068 5.68173C48.0765 5.68173 49.0045 5.79537 49.8909 6.02264C50.7848 6.24991 51.5765 6.60218 52.2659 7.07946C52.9629 7.55673 53.5121 8.17037 53.9136 8.92037C54.3151 9.66279 54.5159 10.5529 54.5159 11.5908V23.3635H49.925V20.9431H49.7886C49.5083 21.4885 49.1333 21.9696 48.6636 22.3863C48.1939 22.7954 47.6295 23.1173 46.9705 23.3522C46.3114 23.5795 45.55 23.6931 44.6864 23.6931ZM46.0727 20.3522C46.7848 20.3522 47.4136 20.212 47.9591 19.9317C48.5045 19.6439 48.9326 19.2575 49.2432 18.7726C49.5538 18.2878 49.7091 17.7385 49.7091 17.1249V15.2726C49.5576 15.3711 49.3492 15.462 49.0841 15.5454C48.8265 15.6211 48.5348 15.6931 48.2091 15.7613C47.8833 15.8219 47.5576 15.8787 47.2318 15.9317C46.9061 15.9772 46.6106 16.0189 46.3455 16.0567C45.7773 16.1401 45.2811 16.2726 44.8568 16.4545C44.4326 16.6363 44.103 16.8825 43.8682 17.1931C43.6333 17.4961 43.5159 17.8749 43.5159 18.3295C43.5159 18.9885 43.7545 19.4923 44.2318 19.8408C44.7167 20.1817 45.3303 20.3522 46.0727 20.3522Z" fill="#2AC6FF"/>
<path d="M61.5125 0.0908203V23.3635H56.6716V0.0908203H61.5125Z" fill="#2AC6FF"/>
<path d="M63.7903 29.909V5.909H68.5631V8.84082H68.779C68.9911 8.37112 69.2979 7.89385 69.6994 7.409C70.1085 6.91658 70.6388 6.50749 71.2903 6.18173C71.9494 5.8484 72.7676 5.68173 73.7449 5.68173C75.0176 5.68173 76.1919 6.01506 77.2676 6.68173C78.3434 7.34082 79.2032 8.33703 79.8472 9.67037C80.4911 10.9961 80.8131 12.659 80.8131 14.659C80.8131 16.606 80.4987 18.2499 79.8699 19.5908C79.2487 20.9242 78.4002 21.9355 77.3244 22.6249C76.2563 23.3067 75.0593 23.6476 73.7335 23.6476C72.7941 23.6476 71.9949 23.4923 71.3358 23.1817C70.6843 22.8711 70.1502 22.481 69.7335 22.0113C69.3169 21.534 68.9987 21.0529 68.779 20.5681H68.6312V29.909H63.7903ZM68.529 14.6363C68.529 15.6742 68.6729 16.5795 68.9608 17.3522C69.2487 18.1249 69.6653 18.7272 70.2108 19.159C70.7562 19.5832 71.4191 19.7954 72.1994 19.7954C72.9873 19.7954 73.654 19.5795 74.1994 19.1476C74.7449 18.7082 75.1578 18.1022 75.4381 17.3295C75.7259 16.5492 75.8699 15.6514 75.8699 14.6363C75.8699 13.6287 75.7297 12.7423 75.4494 11.9772C75.1691 11.212 74.7562 10.6135 74.2108 10.1817C73.6653 9.74991 72.9949 9.534 72.1994 9.534C71.4116 9.534 70.7449 9.74234 70.1994 10.159C69.6616 10.5757 69.2487 11.1666 68.9608 11.9317C68.6729 12.6969 68.529 13.5984 68.529 14.6363Z" fill="#2AC6FF"/>
<path d="M84.8665 29.909C84.2528 29.909 83.6771 29.8598 83.1392 29.7613C82.6089 29.6704 82.1695 29.5529 81.821 29.409L82.9119 25.7954C83.4801 25.9696 83.9915 26.0643 84.446 26.0795C84.9081 26.0946 85.3059 25.9885 85.6392 25.7613C85.9801 25.534 86.2566 25.1476 86.4688 24.6022L86.7528 23.8635L80.4915 5.909H85.5824L89.196 18.7272H89.3778L93.0256 5.909H98.1506L91.3665 25.2499C91.0407 26.1893 90.5975 27.0075 90.0369 27.7045C89.4839 28.409 88.7831 28.9507 87.9347 29.3295C87.0862 29.7158 86.0634 29.909 84.8665 29.909Z" fill="#2AC6FF"/>
</svg>
